<svg width="222" height="222" viewBox="0 0 222 222" fill="none" xmlns="http://www.w3.org/2000/svg">
<path d="M110.6 -0.000976562C128.273 -0.000976562 142.6 14.326 142.6 31.999V33.3438L143.551 32.3926C156.047 19.8962 176.309 19.8962 188.806 32.3926C201.302 44.8893 201.302 65.1507 188.806 77.6475L187.854 78.5986L189.2 78.5996C206.873 78.5999 221.2 92.9267 221.2 110.6C221.2 128.272 206.873 142.599 189.2 142.6L187.854 142.599L188.806 143.551C201.302 156.048 201.302 176.309 188.806 188.806C176.309 201.302 156.047 201.302 143.551 188.806L142.6 187.854V189.199C142.6 206.872 128.273 221.199 110.6 221.199C92.9266 221.199 78.5997 206.872 78.5996 189.199V187.854L77.6484 188.806C65.1517 201.302 44.8903 201.302 32.3936 188.806C19.8969 176.309 19.897 156.048 32.3936 143.551L33.3447 142.6H32C14.3271 142.6 0.000244257 128.272 0 110.6C2.10749e-07 92.9265 14.327 78.5997 32 78.5996H33.3457L32.3936 77.6475C19.8971 65.1507 19.8969 44.8893 32.3936 32.3926C44.8903 19.8961 65.1517 19.897 77.6484 32.3936L78.5996 33.3447V31.999C78.5997 14.326 92.9266 -0.000955946 110.6 -0.000976562Z" fill="#D9D9D9"/>
</svg>
